<svg viewBox="0 0 520 400" fill="none" xmlns="http://www.w3.org/2000/svg">
  <rect width="520" height="400" rx="16" fill="var(--surface, #F5F5F5)"/>

  <!-- Central block -->
  <rect x="210" y="160" width="100" height="80" rx="8" fill="var(--background, #fff)" stroke="var(--accent, #19D87D)" stroke-width="2.5" opacity="0.9"/>
  <rect x="210" y="160" width="100" height="26" rx="8" fill="var(--accent, #19D87D)" opacity="0.12"/>
  <text x="260" y="178" text-anchor="middle" font-size="11" fill="var(--foreground, #1C1C1C)" opacity="0.5" font-family="monospace">BLOCK #8042</text>
  <rect x="222" y="194" width="76" height="4" rx="2" fill="var(--accent, #19D87D)" opacity="0.2"/>
  <rect x="222" y="204" width="60" height="4" rx="2" fill="var(--accent, #19D87D)" opacity="0.15"/>
  <rect x="222" y="214" width="68" height="4" rx="2" fill="var(--accent, #19D87D)" opacity="0.2"/>
  <rect x="222" y="224" width="40" height="4" rx="2" fill="var(--accent, #19D87D)" opacity="0.15"/>

  <!-- Hash below block -->
  <text x="260" y="258" text-anchor="middle" font-size="8" fill="var(--muted, #999)" opacity="0.4" font-family="monospace">0x7a3f...b9e2</text>

  <!-- Connected blocks -->
  <rect x="60" y="110" width="80" height="65" rx="6" fill="var(--background, #fff)" stroke="var(--accent, #19D87D)" stroke-width="2" opacity="0.6"/>
  <rect x="60" y="110" width="80" height="20" rx="6" fill="var(--accent, #19D87D)" opacity="0.08"/>
  <text x="100" y="125" text-anchor="middle" font-size="9" fill="var(--foreground, #1C1C1C)" opacity="0.4" font-family="monospace">BLOCK #8041</text>
  <rect x="70" y="138" width="50" height="3" rx="1.5" fill="var(--accent, #19D87D)" opacity="0.15"/>
  <rect x="70" y="146" width="40" height="3" rx="1.5" fill="var(--accent, #19D87D)" opacity="0.1"/>
  <rect x="70" y="154" width="45" height="3" rx="1.5" fill="var(--accent, #19D87D)" opacity="0.15"/>

  <rect x="380" y="100" width="80" height="65" rx="6" fill="var(--background, #fff)" stroke="var(--accent, #19D87D)" stroke-width="2" opacity="0.6"/>
  <rect x="380" y="100" width="80" height="20" rx="6" fill="var(--accent, #19D87D)" opacity="0.08"/>
  <text x="420" y="115" text-anchor="middle" font-size="9" fill="var(--foreground, #1C1C1C)" opacity="0.4" font-family="monospace">BLOCK #8043</text>
  <rect x="390" y="128" width="50" height="3" rx="1.5" fill="var(--accent, #19D87D)" opacity="0.15"/>
  <rect x="390" y="136" width="40" height="3" rx="1.5" fill="var(--accent, #19D87D)" opacity="0.1"/>
  <rect x="390" y="144" width="45" height="3" rx="1.5" fill="var(--accent, #19D87D)" opacity="0.15"/>

  <rect x="30" y="250" width="80" height="65" rx="6" fill="var(--background, #fff)" stroke="var(--accent, #19D87D)" stroke-width="2" opacity="0.6"/>
  <rect x="30" y="250" width="80" height="20" rx="6" fill="var(--accent, #19D87D)" opacity="0.08"/>
  <text x="70" y="265" text-anchor="middle" font-size="9" fill="var(--foreground, #1C1C1C)" opacity="0.4" font-family="monospace">BLOCK #8040</text>
  <rect x="40" y="278" width="50" height="3" rx="1.5" fill="var(--accent, #19D87D)" opacity="0.15"/>
  <rect x="40" y="286" width="40" height="3" rx="1.5" fill="var(--accent, #19D87D)" opacity="0.1"/>
  <rect x="40" y="294" width="45" height="3" rx="1.5" fill="var(--accent, #19D87D)" opacity="0.15"/>

  <rect x="410" y="240" width="80" height="65" rx="6" fill="var(--background, #fff)" stroke="var(--accent, #19D87D)" stroke-width="2" opacity="0.6"/>
  <rect x="410" y="240" width="80" height="20" rx="6" fill="var(--accent, #19D87D)" opacity="0.08"/>
  <text x="450" y="255" text-anchor="middle" font-size="9" fill="var(--foreground, #1C1C1C)" opacity="0.4" font-family="monospace">BLOCK #8044</text>
  <rect x="420" y="268" width="50" height="3" rx="1.5" fill="var(--accent, #19D87D)" opacity="0.15"/>
  <rect x="420" y="276" width="40" height="3" rx="1.5" fill="var(--accent, #19D87D)" opacity="0.1"/>
  <rect x="420" y="284" width="45" height="3" rx="1.5" fill="var(--accent, #19D87D)" opacity="0.15"/>

  <!-- Connection lines between blocks -->
  <line x1="140" y1="142" x2="210" y2="178" stroke="var(--accent, #19D87D)" stroke-width="2" stroke-dasharray="4 3" opacity="0.3"/>
  <line x1="310" y1="178" x2="380" y2="132" stroke="var(--accent, #19D87D)" stroke-width="2" stroke-dasharray="4 3" opacity="0.3"/>
  <line x1="110" y1="175" x2="210" y2="190" stroke="var(--accent, #19D87D)" stroke-width="2" stroke-dasharray="4 3" opacity="0.3"/>
  <line x1="310" y1="195" x2="410" y2="272" stroke="var(--accent, #19D87D)" stroke-width="2" stroke-dasharray="4 3" opacity="0.3"/>
  <line x1="210" y1="240" x2="110" y2="282" stroke="var(--accent, #19D87D)" stroke-width="2" stroke-dasharray="4 3" opacity="0.3"/>

  <!-- Nodes (circles at connection points) -->
  <circle cx="210" cy="178" r="5" fill="var(--accent, #19D87D)" opacity="0.3"/>
  <circle cx="310" cy="178" r="5" fill="var(--accent, #19D87D)" opacity="0.3"/>
  <circle cx="210" cy="240" r="5" fill="var(--accent, #19D87D)" opacity="0.3"/>

  <!-- Floating nodes network -->
  <circle cx="170" cy="50" r="6" fill="var(--accent, #19D87D)" opacity="0.1"/>
  <circle cx="170" cy="50" r="3" fill="var(--accent, #19D87D)" opacity="0.2"/>
  <circle cx="350" cy="60" r="6" fill="var(--accent, #19D87D)" opacity="0.1"/>
  <circle cx="350" cy="60" r="3" fill="var(--accent, #19D87D)" opacity="0.2"/>
  <circle cx="260" cy="340" r="6" fill="var(--accent, #19D87D)" opacity="0.1"/>
  <circle cx="260" cy="340" r="3" fill="var(--accent, #19D87D)" opacity="0.2"/>
  <circle cx="480" cy="180" r="6" fill="var(--accent, #19D87D)" opacity="0.1"/>
  <circle cx="480" cy="180" r="3" fill="var(--accent, #19D87D)" opacity="0.2"/>
  <circle cx="40" cy="190" r="6" fill="var(--accent, #19D87D)" opacity="0.1"/>
  <circle cx="40" cy="190" r="3" fill="var(--accent, #19D87D)" opacity="0.2"/>

  <!-- Dashed outer connections -->
  <line x1="170" y1="50" x2="210" y2="160" stroke="var(--accent, #19D87D)" stroke-width="1.5" stroke-dasharray="3 4" opacity="0.12"/>
  <line x1="350" y1="60" x2="310" y2="160" stroke="var(--accent, #19D87D)" stroke-width="1.5" stroke-dasharray="3 4" opacity="0.12"/>
  <line x1="260" y1="340" x2="260" y2="240" stroke="var(--accent, #19D87D)" stroke-width="1.5" stroke-dasharray="3 4" opacity="0.12"/>

  <!-- Shield/lock icon (trust) -->
  <g transform="translate(260, 300)" opacity="0.15">
    <path d="M0 8 L0 0 L12 0 L12 8 Q12 16 6 20 Q0 16 0 8 Z" fill="var(--accent, #19D87D)"/>
    <path d="M4 8 L6 10 L10 5" stroke="var(--background, #fff)" stroke-width="1.5" fill="none" stroke-linecap="round"/>
  </g>
</svg>
