<?xml version="1.0" encoding="UTF-8"?>
<!DOCTYPE svg PUBLIC "-//W3C//DTD SVG 1.0//EN" "http://www.w3.org/TR/2001/REC-SVG-20010904/DTD/svg10.dtd">
<!-- Creator: CorelDRAW 2021 (64 Bit) -->
<svg xmlns="http://www.w3.org/2000/svg" xml:space="preserve" width="88.2249mm" height="88.2249mm" version="1.0" style="shape-rendering:geometricPrecision; text-rendering:geometricPrecision; image-rendering:optimizeQuality; fill-rule:evenodd; clip-rule:evenodd"
viewBox="0 0 24.4309 24.4309"
 xmlns:xlink="http://www.w3.org/1999/xlink"
 xmlns:xodm="http://www.corel.com/coreldraw/odm/2003">
 <defs>
  <style type="text/css">
   <![CDATA[
    .fil0 {fill:none}
    .fil2 {fill:#19D87D;fill-rule:nonzero}
    .fil1 {fill:#1C1C1C;fill-rule:nonzero}
    .fil3 {fill:#21AA62;fill-rule:nonzero}
   ]]>
  </style>
 </defs>
 <g id="Camada_x0020_1">
  <metadata id="CorelCorpID_0Corel-Layer"/>
  <rect class="fil0" x="-0" y="-0" width="24.4309" height="24.4309"/>
  <g id="_2013771898256">
   <g>
    <path class="fil1" d="M22.5998 12.2154c0,5.7351 -4.6493,10.3844 -10.3843,10.3844 -5.7351,0 -10.3844,-4.6493 -10.3844,-10.3844 0,-5.7351 4.6493,-10.3843 10.3844,-10.3843 5.7351,0 10.3843,4.6492 10.3843,10.3843z"/>
   </g>
   <g>
    <g>
     <g>
      <path class="fil2" d="M11.2621 15.2144c0.5308,1.7346 -0.0029,2.2219 -0.8064,3.6954l4.0811 -2.6309c1.7264,-1.0981 3.1771,-2.4916 3.1771,-3.9735 0,-1.809 -0.9975,-2.5865 -3.1771,-4.0698l-3.1326 -2.0276c-0.4003,-0.261 -1.1719,-0.8093 -1.5344,-0.9601 -0.7426,-0.3103 -1.4126,0.2378 -1.3546,0.9862 0.029,0.3713 0.4322,1.4938 0.5714,1.9231 0.7483,2.3495 1.4532,4.699 2.1755,7.0571z"/>
     </g>
     <g>
      <path class="fil3" d="M11.2621 15.2144c0,0 -0.3472,-1.1366 -1.079,-3.5329 0.3154,1.5951 -1.1283,4.3828 -1.546,6.0071 -0.4177,1.6244 0.7512,1.9347 1.8187,1.2211l0.7638 -0.4924c0.8963,-0.5976 0.2223,-2.6141 0.0425,-3.203z"/>
     </g>
    </g>
   </g>
  </g>
 </g>
</svg>
