<?xml version="1.0" encoding="UTF-8"?>
<!DOCTYPE svg PUBLIC "-//W3C//DTD SVG 1.1//EN" "http://www.w3.org/Graphics/SVG/1.1/DTD/svg11.dtd">
<!-- Creator: CorelDRAW 2021 (64 Bit) -->
<svg xmlns="http://www.w3.org/2000/svg" xml:space="preserve" width="70mm" height="70mm" version="1.1" style="shape-rendering:geometricPrecision; text-rendering:geometricPrecision; image-rendering:optimizeQuality; fill-rule:evenodd; clip-rule:evenodd"
viewBox="0 0 2805.09 2805.09"
 xmlns:xlink="http://www.w3.org/1999/xlink"
 xmlns:xodm="http://www.corel.com/coreldraw/odm/2003">
 <defs>
  <style type="text/css">
   <![CDATA[
    .fil0 {fill:none}
    .fil1 {fill:#19D87D;fill-rule:nonzero}
   ]]>
  </style>
 </defs>
 <g id="Camada_x0020_1">
  <metadata id="CorelCorpID_0Corel-Layer"/>
  <rect class="fil0" x="-0" y="0" width="2805.09" height="2805.09"/>
  <path class="fil1" d="M2238.23 1519.72c-0.59,297.15 -156.72,565.41 -413.54,714.26 -126.59,72.21 -264,108.76 -409.77,109.05 -280.86,-0.55 -537.55,-140.31 -690.96,-375.44 -17.04,-26.35 -32.46,-53.36 -46.25,-80.98l-122.28 0c36.74,85.86 86.73,166.51 149.42,240.3 162.54,188.35 384.25,302.61 632.34,323.88 26.04,2.05 51.62,3.11 77.74,3.19 235.58,-0.82 453.28,-84.99 628.18,-242.71 189.99,-173.68 298.59,-410.04 305.77,-667.48 0.22,-7.73 0.3,-15.56 0.3,-23.32l0.01 -0.75c-0.79,-225.77 -78.03,-435.15 -224.19,-607.18 -162.54,-188.35 -384.24,-302.61 -632.33,-323.89 -11.24,-0.89 -22.39,-1.58 -33.53,-2.1 7.06,-9.31 11.26,-20.91 11.26,-33.5l0 -90.99 164.23 0c30.64,0 55.47,-24.84 55.47,-55.48 0,-30.64 -24.84,-55.47 -55.47,-55.47l-219.7 0 -219.69 0c-30.64,0 -55.47,24.84 -55.47,55.47 0,30.64 24.84,55.48 55.47,55.48l164.22 0 0 90.99c0,12.6 4.21,24.23 11.29,33.54 -218.58,10.54 -420.09,93.76 -584,241.57 -101.22,92.52 -179.32,202.84 -231.31,324.66l122.25 0c25.43,-50.88 56.34,-99.48 92.57,-145.26 158.14,-197.68 391.36,-310.66 644.67,-311.16 280.86,0.55 537.56,140.32 690.96,375.44 87.23,134.85 132.04,287.29 132.36,447.87zm-2047.44 55.47c-30.64,0 -55.47,-24.84 -55.47,-55.47 0,-30.64 24.84,-55.47 55.47,-55.47l402.78 0c30.64,0 55.48,24.84 55.48,55.47 0,30.64 -24.84,55.47 -55.48,55.47l-402.78 0zm162.26 219.69c-30.64,0 -55.48,-24.84 -55.48,-55.47 0,-30.64 24.84,-55.47 55.48,-55.47l292.93 0c30.64,0 55.47,24.84 55.47,55.47 0,30.64 -24.84,55.47 -55.47,55.47l-292.93 0zm-36.62 -439.39c-30.64,0 -55.47,-24.84 -55.47,-55.47 0,-30.64 24.84,-55.48 55.47,-55.48l329.55 0c30.64,0 55.47,24.84 55.47,55.48 0,30.63 -24.84,55.47 -55.47,55.47l-329.55 0zm540.34 -141.5c27.28,-13.64 60.47,-2.58 74.11,24.7 13.64,27.28 2.58,60.47 -24.7,74.11 -19.24,9.62 -35.37,29.12 -48.05,54.47 -20.68,41.37 -31.03,96.39 -31.03,152.44 0,56.05 10.35,111.07 31.03,152.44 12.68,25.36 28.81,44.86 48.05,54.47 27.28,13.64 38.34,46.82 24.7,74.11 -13.64,27.28 -46.82,38.34 -74.11,24.7 -42.09,-21.04 -74.49,-57.94 -97.45,-103.88 -28.78,-57.55 -43.17,-130.22 -43.17,-201.84 0,-71.63 14.39,-144.29 43.17,-201.84 22.97,-45.94 55.36,-82.83 97.45,-103.88zm683.14 336.37l312.89 255.99c23.7,19.38 27.19,54.31 7.8,78.01 -19.38,23.7 -54.31,27.19 -78.01,7.81l-312.96 -256.05c-16.64,7.89 -35.19,12.31 -54.72,12.31 -35.38,0 -67.49,-14.41 -90.79,-37.7l-0.22 -0.22c-23.29,-23.3 -37.7,-55.4 -37.7,-90.79 0,-35.38 14.41,-67.49 37.7,-90.79l0.22 -0.22c10.23,-10.23 22.16,-18.74 35.31,-25.07l0 -396.55c0,-30.64 24.84,-55.48 55.47,-55.48 30.64,0 55.47,24.84 55.47,55.48l0 396.46c13.26,6.34 25.26,14.88 35.53,25.16 23.29,23.29 37.71,55.47 37.71,91.01 0,10.55 -1.29,20.81 -3.72,30.65z"/>
 </g>
</svg>
