<?xml version="1.0" encoding="UTF-8"?>
<!DOCTYPE svg PUBLIC "-//W3C//DTD SVG 1.1//EN" "http://www.w3.org/Graphics/SVG/1.1/DTD/svg11.dtd">
<!-- Creator: CorelDRAW 2021 (64 Bit) -->
<svg xmlns="http://www.w3.org/2000/svg" xml:space="preserve" width="77.5mm" height="77.5mm" version="1.1" style="shape-rendering:geometricPrecision; text-rendering:geometricPrecision; image-rendering:optimizeQuality; fill-rule:evenodd; clip-rule:evenodd"
viewBox="0 0 7749.98 7749.98"
 xmlns:xlink="http://www.w3.org/1999/xlink"
 xmlns:xodm="http://www.corel.com/coreldraw/odm/2003">
 <defs>
  <style type="text/css">
   <![CDATA[
    .str0 {stroke:#19D87D;stroke-width:250;stroke-miterlimit:22.9256}
    .fil0 {fill:none;fill-rule:nonzero}
   ]]>
  </style>
 </defs>
 <g id="Camada_x0020_1">
  <metadata id="CorelCorpID_0Corel-Layer"/>
  <path class="fil0 str0" d="M7624.98 3874.98c0,2071.06 -1678.94,3750 -3749.98,3750 -2071.06,0 -3750,-1678.94 -3750,-3750 0,-2071.06 1678.94,-3749.98 3750,-3749.98 2071.04,0 3749.98,1678.92 3749.98,3749.98z"/>
  <g id="_2364884723120">
   <path class="fil0 str0" d="M3515.49 6114.56l1197.82 -772.16c623.44,-396.53 1147.33,-899.78 1147.33,-1434.9 0,-653.28 -360.21,-934.03 -1147.33,-1469.7l-1131.25 -732.19c-144.57,-94.27 -423.19,-292.25 -554.11,-346.71 -268.17,-112.07 -510.12,85.89 -489.18,356.13 10.49,134.09 156.07,539.45 206.35,694.48 223.3,701.1 435.89,1402.2 650.16,2105.05l1.4 4.58 5.71 18.69 123.81 405.35 1.2 3.93 1.02 3.32 0.83 2.72 0.64 2.11 0.46 1.51 0.28 0.9 0.09 0.3c64.93,212.62 308.25,940.68 -15.23,1156.58z"/>
   <path class="fil0 str0" d="M3530.72 4957.99c0,0 -125.39,-410.46 -389.66,-1275.79 113.91,576.03 -407.46,1582.71 -558.29,2169.28 -150.83,586.59 271.28,698.66 656.76,440.98l275.84 -177.81c323.66,-215.79 80.29,-944.02 15.35,-1156.67z"/>
  </g>
 </g>
</svg>
