<?xml version="1.0" encoding="UTF-8"?>
<!DOCTYPE svg PUBLIC "-//W3C//DTD SVG 1.0//EN" "http://www.w3.org/TR/2001/REC-SVG-20010904/DTD/svg10.dtd">
<!-- Creator: CorelDRAW 2021 (64 Bit) -->
<svg xmlns="http://www.w3.org/2000/svg" xml:space="preserve" width="175.532mm" height="27.5704mm" version="1.0" style="shape-rendering:geometricPrecision; text-rendering:geometricPrecision; image-rendering:optimizeQuality; fill-rule:evenodd; clip-rule:evenodd"
viewBox="0 0 4977.26 781.77"
 xmlns:xlink="http://www.w3.org/1999/xlink"
 xmlns:xodm="http://www.corel.com/coreldraw/odm/2003">
 <defs>
  <style type="text/css">
   <![CDATA[
    .fil1 {fill:#19D87D;fill-rule:nonzero}
    .fil0 {fill:#1C1C1C;fill-rule:nonzero}
    .fil2 {fill:#21AA62;fill-rule:nonzero}
   ]]>
  </style>
 </defs>
 <g id="Camada_x0020_1">
  <metadata id="CorelCorpID_0Corel-Layer"/>
  <g id="_1529763874192">
   <path class="fil0" d="M781.77 390.88c0,215.88 -175,390.88 -390.88,390.88 -215.88,0 -390.88,-175.01 -390.88,-390.88 0,-215.88 175,-390.88 390.88,-390.88 215.88,0 390.88,175 390.88,390.88z"/>
   <path class="fil1" d="M355 503.77c19.98,65.29 -0.11,83.63 -30.35,139.1l153.62 -99.03c64.98,-41.34 119.59,-93.79 119.59,-149.57 0,-68.1 -37.55,-97.36 -119.59,-153.2l-117.92 -76.32c-15.07,-9.83 -44.11,-30.46 -57.76,-36.14 -27.95,-11.68 -53.17,8.95 -50.99,37.12 1.09,13.97 16.27,56.23 21.51,72.39 28.17,88.44 54.7,176.87 81.89,265.64z"/>
   <path class="fil2" d="M355 503.77c0,0 -13.07,-42.79 -40.62,-132.98 11.87,60.04 -42.47,164.97 -58.2,226.12 -15.72,61.14 28.28,72.83 68.46,45.97l28.75 -18.54c33.74,-22.49 8.37,-98.4 1.6,-120.56z"/>
   <path class="fil1" d="M2531.18 334.87l-32.04 69.84c-14.14,-10.05 -27.01,-17.38 -38.85,-21.99 -11.83,-4.61 -23.56,-6.91 -35.29,-6.91 -9.74,0 -17.91,2.2 -24.29,6.7 -6.39,4.5 -9.63,10.05 -9.63,16.65 0,9.43 10.57,18.22 31.72,26.39 9.43,3.46 16.76,6.49 21.99,8.9 29.74,12.88 50.47,26.18 62.3,40 11.83,13.82 17.8,30.99 17.8,51.62 0,32.56 -12.56,58.64 -37.69,78.32 -25.13,19.79 -58.64,29.63 -100.62,29.63 -23.67,0 -46.28,-3.14 -67.85,-9.32 -21.57,-6.28 -42.51,-15.71 -62.72,-28.38l36.33 -74.13c20.94,12.88 38.43,21.88 52.46,27.22 14.14,5.34 27.43,7.96 39.89,7.96 10.89,0 19.58,-2.41 26.07,-7.22 6.6,-4.81 9.84,-10.99 9.84,-18.53 0,-11.62 -14.97,-23.56 -45.03,-35.81 -9,-3.66 -15.92,-6.49 -20.84,-8.59 -23.98,-10.68 -40.94,-22.2 -50.99,-34.66 -10.05,-12.56 -15.08,-28.06 -15.08,-46.7 0,-29.74 12.35,-54.45 37.17,-74.03 24.71,-19.68 56.54,-29.53 95.39,-29.53 19.68,0 38.84,2.72 57.48,8.27 18.64,5.55 36.12,13.72 52.46,24.29zm215.28 56.02c-21.26,0 -39.37,8.9 -54.13,26.8 -14.87,17.91 -22.3,39.79 -22.3,65.55 0,18.95 5.44,34.13 16.23,45.34 10.89,11.2 25.34,16.86 43.35,16.86 22.72,0 41.36,-8.59 56.02,-25.86 14.66,-17.27 21.99,-39.47 21.99,-66.49 0,-19.16 -5.44,-34.34 -16.44,-45.44 -11,-11.21 -25.86,-16.76 -44.71,-16.76zm-181.36 90.89c0,-52.57 17.17,-95.7 51.52,-129.42 34.45,-33.82 78.43,-50.68 132.04,-50.68 49.53,0 89.11,14.03 118.74,42.09 29.63,27.96 44.5,65.44 44.5,112.25 0,52.04 -17.38,94.76 -52.15,128.27 -34.76,33.61 -79.58,50.36 -134.44,50.36 -48.48,0 -87.33,-13.93 -116.44,-41.78 -29.21,-27.75 -43.77,-64.81 -43.77,-111.09zm460.19 -335.27l110.15 0 -76.12 475.58 -109.84 0 75.81 -475.58zm159.36 165.86l108.48 0 -20.31 128.06c-2.41,16.96 -4.4,31.1 -5.86,42.51 -1.36,11.31 -2.09,18.74 -2.09,22.2 0,14.66 3.56,25.96 10.57,33.71 7.02,7.75 17.38,11.62 30.79,11.62 31.52,0 52.77,-35.6 63.87,-106.91 0.63,-3.87 1.15,-6.91 1.47,-8.9l19.37 -122.3 108.9 0 -22.09 139.99 -0.94 6.49c-10.79,66.49 -27.64,110.88 -50.57,133.19 -14.45,13.82 -32.25,24.29 -53.19,31.41 -20.94,7.02 -44.61,10.58 -70.99,10.58 -45.55,0 -81.46,-10.37 -107.74,-31 -26.28,-20.63 -39.37,-48.69 -39.37,-84.08 0,-8.17 0.73,-18.43 2.1,-30.79 1.47,-12.35 4.29,-31.41 8.59,-57.17l19.05 -118.63zm354.54 309.73l36.54 -230.57 -51.52 0 12.56 -79.16 51.52 0 13.82 -89.84 109.11 0 -14.45 89.84 55.49 0 -12.56 79.16 -55.49 0 -36.12 230.57 -108.9 0zm264.07 -402.18c0,-16.02 5.66,-29.74 17.07,-41.15 11.31,-11.41 25.02,-17.17 41.25,-17.17 16.96,0 30.99,5.55 42.3,16.55 11.2,11.1 16.86,24.92 16.86,41.78 0,16.55 -5.76,30.58 -17.17,41.99 -11.42,11.41 -25.45,17.17 -41.99,17.17 -16.23,0 -29.95,-5.76 -41.25,-17.38 -11.41,-11.52 -17.07,-25.44 -17.07,-41.78zm-57.17 402.18l48.9 -309.73 110.05 0 -49 309.73 -109.95 0zm377.37 -231.2c-21.26,0 -39.37,8.9 -54.13,26.8 -14.87,17.91 -22.3,39.79 -22.3,65.55 0,18.95 5.44,34.13 16.23,45.34 10.89,11.2 25.34,16.86 43.35,16.86 22.72,0 41.36,-8.59 56.02,-25.86 14.66,-17.27 21.99,-39.47 21.99,-66.49 0,-19.16 -5.44,-34.34 -16.44,-45.44 -11,-11.21 -25.86,-16.76 -44.71,-16.76zm-181.36 90.89c0,-52.57 17.17,-95.7 51.52,-129.42 34.45,-33.82 78.43,-50.68 132.04,-50.68 49.53,0 89.11,14.03 118.74,42.09 29.63,27.96 44.5,65.44 44.5,112.25 0,52.04 -17.38,94.76 -52.15,128.27 -34.76,33.61 -79.58,50.36 -134.44,50.36 -48.48,0 -87.33,-13.93 -116.44,-41.78 -29.21,-27.75 -43.77,-64.81 -43.77,-111.09zm379.99 140.31l49 -309.73 104.81 0 -7.64 48.37c17.07,-20.52 33.92,-35.39 50.68,-44.61 16.75,-9.21 35.08,-13.82 54.97,-13.82 32.15,0 56.96,8.69 74.66,25.97 17.7,17.28 26.6,41.46 26.6,72.67 0,10.58 -1.89,28.38 -5.55,53.09 -0.21,2.31 -0.42,4.08 -0.63,5.55l-25.76 162.51 -109.63 0 25.76 -164.08c0.73,-4.6 1.47,-9.21 1.99,-13.72 0.52,-4.5 0.73,-8.38 0.73,-11.73 0,-13.4 -3.56,-23.66 -10.68,-30.58 -7.22,-7.02 -17.7,-10.47 -31.62,-10.47 -18.95,0 -33.82,6.81 -44.61,20.52 -10.68,13.72 -18.43,35.6 -23.14,65.65l-22.09 144.39 -107.85 0zm655.16 -287.21l-32.04 69.84c-14.14,-10.05 -27.01,-17.38 -38.85,-21.99 -11.83,-4.61 -23.56,-6.91 -35.29,-6.91 -9.74,0 -17.91,2.2 -24.29,6.7 -6.39,4.5 -9.63,10.05 -9.63,16.65 0,9.43 10.57,18.22 31.72,26.39 9.43,3.46 16.76,6.49 21.99,8.9 29.74,12.88 50.47,26.18 62.3,40 11.83,13.82 17.8,30.99 17.8,51.62 0,32.56 -12.56,58.64 -37.69,78.32 -25.13,19.79 -58.64,29.63 -100.62,29.63 -23.67,0 -46.28,-3.14 -67.85,-9.32 -21.57,-6.28 -42.51,-15.71 -62.72,-28.38l36.33 -74.13c20.94,12.88 38.43,21.88 52.46,27.22 14.14,5.34 27.43,7.96 39.89,7.96 10.89,0 19.58,-2.41 26.07,-7.22 6.6,-4.81 9.84,-10.99 9.84,-18.53 0,-11.62 -14.97,-23.56 -45.03,-35.81 -9,-3.66 -15.92,-6.49 -20.84,-8.59 -23.98,-10.68 -40.94,-22.2 -50.99,-34.66 -10.05,-12.56 -15.08,-28.06 -15.08,-46.7 0,-29.74 12.35,-54.45 37.17,-74.03 24.71,-19.68 56.54,-29.53 95.39,-29.53 19.68,0 38.84,2.72 57.48,8.27 18.64,5.55 36.12,13.72 52.46,24.29z"/>
   <path class="fil0" d="M884.52 622.71l0 -449.19 93.61 0c69.73,0 119.05,3.25 147.95,9.84 29,6.49 54.34,17.49 76.23,32.77 28.48,19.89 50.05,45.34 64.71,76.23 14.76,30.99 22.09,66.38 22.09,106.07 0,39.68 -7.33,74.97 -22.09,105.96 -14.66,30.99 -36.23,56.44 -64.71,76.33 -21.67,15.08 -46.39,25.86 -74.24,32.36 -27.75,6.39 -70.89,9.63 -129.31,9.63l-20.63 0 -93.61 0zm121.25 -100.52l20.52 0c48.06,0 83.24,-9.84 105.33,-29.63 22.09,-19.68 33.09,-50.99 33.09,-94.03 0,-42.93 -10.99,-74.34 -33.09,-94.45 -22.09,-20 -57.27,-30.05 -105.33,-30.05l-20.52 0 0 248.15zm350.04 -305.95c0,-16.54 5.86,-30.58 17.69,-42.2 11.73,-11.62 25.86,-17.49 42.51,-17.49 17.17,0 31.52,5.76 43.03,17.17 11.62,11.41 17.38,25.55 17.38,42.51 0,16.96 -5.86,31.31 -17.69,43.14 -11.73,11.83 -25.97,17.8 -42.72,17.8 -16.44,0 -30.58,-6.07 -42.41,-18.11 -11.83,-12.04 -17.8,-26.28 -17.8,-42.83zm5.65 406.47l0 -309.73 109.31 0 0 309.73 -109.31 0zm290.46 -154.55c0,24.08 6.28,43.14 18.85,57.07 12.56,13.93 29.95,20.84 52.04,20.84 22.3,0 39.79,-6.91 52.46,-20.73 12.67,-13.82 19.05,-32.88 19.05,-57.17 0,-24.08 -6.39,-43.14 -19.16,-57.07 -12.77,-13.93 -30.26,-20.84 -52.36,-20.84 -22.09,0 -39.47,6.91 -52.04,20.84 -12.57,13.93 -18.85,32.98 -18.85,57.07zm-96.96 -321.03l104.29 0 0 161.98c0,13.09 -0.21,23.98 -0.73,32.67 -0.52,8.8 -1.26,16.34 -2.3,22.62 12.67,-22.09 27.22,-37.91 43.66,-47.33 16.44,-9.43 37.91,-14.14 64.29,-14.14 41.25,0 74.76,15.18 100.41,45.55 25.65,30.36 38.43,70.26 38.43,119.57 0,50.89 -12.88,91.41 -38.74,121.46 -25.86,30.05 -60.52,45.13 -103.87,45.13 -21.26,0 -40.52,-5.13 -57.9,-15.5 -17.38,-10.26 -32.98,-25.86 -46.91,-46.7l0 50.26 -100.62 0 0 -475.58zm385.22 449.82l22.72 -83.56c16.02,13.93 33.51,24.61 52.67,32.15 19.16,7.43 38.43,11.2 57.8,11.2 13.72,0 24.19,-2.2 31.31,-6.6 7.22,-4.4 10.79,-10.79 10.79,-19.16 0,-13.72 -14.45,-23.98 -43.35,-30.78 -9.43,-2.2 -17.07,-4.19 -22.72,-5.76 -32.77,-9.01 -56.44,-20.84 -71.31,-35.5 -14.76,-14.55 -22.2,-33.61 -22.2,-56.86 0,-30.16 11.31,-54.13 33.92,-72.14 22.62,-18.01 53.19,-27.02 91.83,-27.02 19.89,0 40.1,2.31 60.63,6.91 20.52,4.6 41.57,11.72 63.03,21.36l-22.72 75.39c-14.45,-9.84 -29.21,-17.38 -44.19,-22.51 -14.97,-5.13 -29.84,-7.64 -44.82,-7.64 -12.46,0 -21.88,1.99 -28.27,5.86 -6.39,3.87 -9.53,9.53 -9.53,16.86 0,11 14.34,20.31 43.03,27.96 6.6,1.78 11.52,3.14 14.76,3.98 37.8,10.78 64.08,23.56 78.95,38.11 14.76,14.66 22.2,34.45 22.2,59.37 0,31.62 -12.14,57.27 -36.54,76.75 -24.29,19.58 -56.54,29.32 -96.54,29.32 -27.22,0 -52.46,-3.14 -75.81,-9.32 -23.35,-6.28 -45.23,-15.71 -65.65,-28.38z"/>
  </g>
 </g>
</svg>
