<?xml version="1.0" encoding="UTF-8"?>
<!DOCTYPE svg PUBLIC "-//W3C//DTD SVG 1.0//EN" "http://www.w3.org/TR/2001/REC-SVG-20010904/DTD/svg10.dtd">
<!-- Creator: CorelDRAW 2021 (64 Bit) -->
<svg xmlns="http://www.w3.org/2000/svg" xml:space="preserve" width="177.932mm" height="27.5704mm" version="1.0" style="shape-rendering:geometricPrecision; text-rendering:geometricPrecision; image-rendering:optimizeQuality; fill-rule:evenodd; clip-rule:evenodd"
viewBox="0 0 16621.95 2575.56"
 xmlns:xlink="http://www.w3.org/1999/xlink"
 xmlns:xodm="http://www.corel.com/coreldraw/odm/2003">
 <defs>
  <style type="text/css">
   <![CDATA[
    .fil3 {fill:#FEFEFE;fill-rule:nonzero}
    .fil0 {fill:#FEFEFE;fill-rule:nonzero}
    .fil1 {fill:#19D87D;fill-rule:nonzero}
    .fil2 {fill:#21AA62;fill-rule:nonzero}
   ]]>
  </style>
 </defs>
 <g id="Camada_x0020_1">
  <metadata id="CorelCorpID_0Corel-Layer"/>
  <g id="_1529763858688">
   <path class="fil0" d="M2575.55 1287.78c0,711.22 -576.55,1287.78 -1287.78,1287.78 -711.22,0 -1287.77,-576.56 -1287.77,-1287.78 0,-711.23 576.55,-1287.78 1287.77,-1287.78 711.23,0 1287.78,576.55 1287.78,1287.78z"/>
   <path class="fil1" d="M1169.55 1659.69c65.82,215.1 -0.36,275.54 -100,458.27l506.11 -326.25c214.09,-136.18 394,-309 394,-492.76 0,-224.34 -123.69,-320.75 -394,-504.72l-388.49 -251.43c-49.63,-32.37 -145.32,-100.36 -190.28,-119.06 -92.08,-38.49 -175.18,29.49 -167.98,122.3 3.6,46.04 53.59,185.25 70.87,238.49 92.8,291.36 180.21,582.72 269.78,875.16z"/>
   <path class="fil2" d="M1169.55 1659.69c0,0 -43.07,-140.96 -133.81,-438.12 39.11,197.81 -139.93,543.51 -191.73,744.95 -51.79,201.44 93.17,239.92 225.54,151.44l94.73 -61.07c111.15,-74.1 27.58,-324.18 5.28,-397.2z"/>
   <path class="fil1" d="M8563.27 1103.22l-105.56 230.1c-46.57,-33.12 -89,-57.26 -127.98,-72.45 -38.97,-15.18 -77.61,-22.77 -116.25,-22.77 -32.08,0 -58.99,7.24 -80.03,22.07 -21.05,14.83 -31.73,33.12 -31.73,54.85 0,31.05 34.84,60.03 104.52,86.93 31.05,11.39 55.2,21.38 72.45,29.32 97.97,42.43 166.27,86.24 205.26,131.77 38.97,45.53 58.64,102.11 58.64,170.07 0,107.28 -41.39,193.18 -124.18,258.03 -82.8,65.21 -193.19,97.63 -331.51,97.63 -77.97,0 -152.48,-10.35 -223.54,-30.71 -71.06,-20.69 -140.05,-51.74 -206.63,-93.48l119.7 -244.23c69,42.43 126.61,72.09 172.83,89.69 46.57,17.59 90.38,26.21 131.43,26.21 35.87,0 64.5,-7.93 85.9,-23.8 21.73,-15.86 32.43,-36.22 32.43,-61.06 0,-38.29 -49.33,-77.62 -148.34,-117.98 -29.66,-12.07 -52.44,-21.38 -68.64,-28.29 -78.99,-35.19 -134.89,-73.14 -168,-114.18 -33.12,-41.39 -49.67,-92.45 -49.67,-153.85 0,-97.98 40.7,-179.38 122.46,-243.89 81.41,-64.85 186.28,-97.28 314.27,-97.28 64.85,0 127.97,8.97 189.38,27.25 61.4,18.28 119.01,45.2 172.83,80.03zm709.24 184.56c-70.03,0 -129.71,29.32 -178.34,88.31 -48.99,58.99 -73.48,131.09 -73.48,215.95 0,62.44 17.94,112.46 53.47,149.37 35.87,36.91 83.48,55.54 142.82,55.54 74.86,0 136.26,-28.29 184.56,-85.21 48.29,-56.91 72.44,-130.05 72.44,-219.05 0,-63.13 -17.94,-113.15 -54.15,-149.71 -36.23,-36.92 -85.21,-55.2 -147.3,-55.2zm-597.48 299.43c0,-173.18 56.57,-315.29 169.72,-426.38 113.49,-111.42 258.38,-166.97 435,-166.97 163.17,0 293.56,46.23 391.2,138.68 97.62,92.11 146.61,215.6 146.61,369.8 0,171.44 -57.26,312.19 -171.79,422.57 -114.53,110.74 -262.18,165.93 -442.93,165.93 -159.73,0 -287.71,-45.88 -383.6,-137.64 -96.25,-91.41 -144.2,-213.52 -144.2,-366zm1516.12 -1104.57l362.9 0 -250.79 1566.82 -361.86 0 249.75 -1566.82zm525.03 546.42l357.39 0 -66.92 421.89c-7.93,55.88 -14.49,102.45 -19.32,140.05 -4.48,37.25 -6.89,61.75 -6.89,73.14 0,48.29 11.72,85.54 34.84,111.07 23.11,25.53 57.26,38.29 101.42,38.29 103.83,0 173.86,-117.29 210.42,-352.21 2.07,-12.76 3.79,-22.77 4.83,-29.31l63.82 -402.92 358.76 0 -72.79 461.21 -3.1 21.39c-35.54,219.05 -91.07,365.31 -166.62,438.79 -47.61,45.53 -106.24,80.03 -175.24,103.49 -68.99,23.11 -146.96,34.84 -233.88,34.84 -150.07,0 -268.39,-34.15 -354.97,-102.11 -86.59,-67.95 -129.71,-160.41 -129.71,-277 0,-26.9 2.42,-60.71 6.9,-101.42 4.83,-40.7 14.14,-103.49 28.29,-188.35l62.78 -390.84zm1168.05 1020.4l120.39 -759.61 -169.72 0 41.39 -260.79 169.73 0 45.53 -295.97 359.45 0 -47.61 295.97 182.83 0 -41.39 260.79 -182.83 0 -119.01 759.61 -358.76 0zm869.99 -1325.01c0,-52.77 18.64,-97.97 56.24,-135.57 37.25,-37.6 82.44,-56.57 135.91,-56.57 55.88,0 102.11,18.28 139.36,54.51 36.91,36.56 55.55,82.1 55.55,137.63 0,54.51 -18.97,100.73 -56.57,138.33 -37.61,37.6 -83.83,56.57 -138.33,56.57 -53.47,0 -98.66,-18.97 -135.91,-57.26 -37.6,-37.95 -56.24,-83.82 -56.24,-137.64zm-188.35 1325.01l161.1 -1020.4 362.55 0 -161.43 1020.4 -362.22 0zm1243.25 -761.68c-70.03,0 -129.71,29.32 -178.34,88.31 -48.99,58.99 -73.48,131.09 -73.48,215.95 0,62.44 17.94,112.46 53.47,149.37 35.87,36.91 83.48,55.54 142.82,55.54 74.86,0 136.26,-28.29 184.56,-85.21 48.29,-56.91 72.44,-130.05 72.44,-219.05 0,-63.13 -17.94,-113.15 -54.15,-149.71 -36.23,-36.92 -85.21,-55.2 -147.3,-55.2zm-597.48 299.43c0,-173.18 56.57,-315.29 169.72,-426.38 113.49,-111.42 258.38,-166.97 435,-166.97 163.17,0 293.56,46.23 391.2,138.68 97.62,92.11 146.61,215.6 146.61,369.8 0,171.44 -57.26,312.19 -171.79,422.57 -114.53,110.74 -262.18,165.93 -442.93,165.93 -159.73,0 -287.71,-45.88 -383.6,-137.64 -96.25,-91.41 -144.2,-213.52 -144.2,-366zm1251.88 462.25l161.44 -1020.4 345.31 0 -25.19 159.37c56.23,-67.61 111.76,-116.59 166.97,-146.96 55.19,-30.35 115.56,-45.53 181.1,-45.53 105.91,0 187.67,28.63 245.96,85.55 58.3,56.92 87.63,136.6 87.63,239.4 0,34.84 -6.21,93.48 -18.28,174.9 -0.69,7.59 -1.38,13.45 -2.07,18.28l-84.86 535.39 -361.18 0 84.86 -540.56c2.42,-15.17 4.83,-30.35 6.56,-45.19 1.73,-14.83 2.41,-27.6 2.41,-38.64 0,-44.16 -11.72,-77.96 -35.18,-100.73 -23.8,-23.11 -58.3,-34.49 -104.18,-34.49 -62.44,0 -111.42,22.42 -146.96,67.61 -35.18,45.2 -60.71,117.3 -76.24,216.3l-72.78 475.7 -355.31 0zm2158.43 -946.24l-105.56 230.1c-46.57,-33.12 -89,-57.26 -127.98,-72.45 -38.97,-15.18 -77.61,-22.77 -116.25,-22.77 -32.08,0 -58.99,7.24 -80.03,22.07 -21.05,14.83 -31.73,33.12 -31.73,54.85 0,31.05 34.84,60.03 104.52,86.93 31.05,11.39 55.2,21.38 72.45,29.32 97.97,42.43 166.27,86.24 205.26,131.77 38.97,45.53 58.64,102.11 58.64,170.07 0,107.28 -41.39,193.18 -124.18,258.03 -82.8,65.21 -193.19,97.63 -331.51,97.63 -77.97,0 -152.48,-10.35 -223.54,-30.71 -71.06,-20.69 -140.05,-51.74 -206.63,-93.48l119.7 -244.23c69,42.43 126.61,72.09 172.83,89.69 46.57,17.59 90.38,26.21 131.43,26.21 35.87,0 64.5,-7.93 85.9,-23.8 21.73,-15.86 32.43,-36.22 32.43,-61.06 0,-38.29 -49.33,-77.62 -148.34,-117.98 -29.66,-12.07 -52.44,-21.38 -68.64,-28.29 -78.99,-35.19 -134.89,-73.14 -168,-114.18 -33.12,-41.39 -49.67,-92.45 -49.67,-153.85 0,-97.98 40.7,-179.38 122.46,-243.89 81.41,-64.85 186.28,-97.28 314.27,-97.28 64.85,0 127.97,8.97 189.38,27.25 61.4,18.28 119.01,45.2 172.83,80.03z"/>
   <path class="fil3" d="M3138.27 2051.52l0 -1479.88 308.39 0c229.74,0 392.22,10.7 487.43,32.43 95.56,21.38 179.03,57.61 251.13,107.97 93.83,65.54 164.89,149.37 213.18,251.13 48.64,102.11 72.79,218.7 72.79,349.45 0,130.74 -24.15,246.99 -72.79,349.1 -48.29,102.11 -119.35,185.93 -213.18,251.47 -71.41,49.68 -152.82,85.21 -244.59,106.6 -91.41,21.04 -233.53,31.73 -426.02,31.73l-67.96 0 -308.39 0zm399.46 -331.17l67.62 0c158.33,0 274.24,-32.43 347.03,-97.62 72.79,-64.85 109.01,-167.99 109.01,-309.77 0,-141.43 -36.22,-244.92 -109.01,-311.16 -72.79,-65.89 -188.69,-99 -347.03,-99l-67.62 0 0 817.55zm1153.21 -1007.98c0,-54.5 19.32,-100.73 58.29,-139.01 38.64,-38.29 85.21,-57.61 140.06,-57.61 56.57,0 103.83,18.97 141.78,56.57 38.28,37.6 57.26,84.17 57.26,140.05 0,55.88 -19.32,103.14 -58.29,142.13 -38.64,38.98 -85.55,58.64 -140.74,58.64 -54.16,0 -100.73,-20 -139.72,-59.68 -38.98,-39.67 -58.64,-86.59 -58.64,-141.09zm18.63 1339.14l0 -1020.4 360.13 0 0 1020.4 -360.13 0zm956.92 -509.16c0,79.34 20.69,142.13 62.09,188 41.39,45.88 98.66,68.65 171.44,68.65 73.48,0 131.08,-22.78 172.83,-68.31 41.74,-45.53 62.78,-108.32 62.78,-188.35 0,-79.34 -21.04,-142.13 -63.12,-188 -42.08,-45.88 -99.7,-68.65 -172.49,-68.65 -72.78,0 -130.05,22.78 -171.44,68.65 -41.4,45.88 -62.09,108.66 -62.09,188zm-319.44 -1057.66l343.59 0 0 533.66c0,43.12 -0.69,78.99 -2.42,107.63 -1.73,28.98 -4.14,53.82 -7.59,74.52 41.74,-72.79 89.69,-124.88 143.84,-155.92 54.16,-31.05 124.88,-46.58 211.81,-46.58 135.91,0 246.3,50.03 330.82,150.07 84.51,100.03 126.6,231.47 126.6,393.94 0,167.66 -42.43,301.15 -127.64,400.15 -85.21,99 -199.38,148.68 -342.2,148.68 -70.03,0 -133.5,-16.91 -190.77,-51.06 -57.26,-33.8 -108.66,-85.2 -154.54,-153.85l0 165.58 -331.51 0 0 -1566.82zm1269.12 1481.96l74.86 -275.28c52.78,45.89 110.39,81.07 173.51,105.91 63.13,24.49 126.61,36.91 190.42,36.91 45.19,0 79.69,-7.24 103.14,-21.73 23.8,-14.49 35.54,-35.54 35.54,-63.13 0,-45.19 -47.61,-78.99 -142.82,-101.41 -31.05,-7.25 -56.23,-13.8 -74.86,-18.97 -107.97,-29.67 -185.94,-68.65 -234.92,-116.95 -48.64,-47.94 -73.14,-110.73 -73.14,-187.31 0,-99.35 37.25,-178.34 111.76,-237.67 74.52,-59.34 175.24,-89.01 302.53,-89.01 65.54,0 132.12,7.59 199.74,22.78 67.62,15.17 136.95,38.63 207.67,70.37l-74.86 248.37c-47.61,-32.43 -96.25,-57.26 -145.57,-74.16 -49.33,-16.91 -98.32,-25.19 -147.65,-25.19 -41.05,0 -72.1,6.56 -93.14,19.32 -21.05,12.76 -31.4,31.39 -31.4,55.54 0,36.23 47.26,66.92 141.78,92.11 21.74,5.86 37.95,10.34 48.64,13.11 124.53,35.53 211.11,77.61 260.1,125.56 48.63,48.3 73.13,113.49 73.13,195.6 0,104.18 -40.01,188.69 -120.39,252.85 -80.03,64.5 -186.28,96.59 -318.06,96.59 -89.69,0 -172.82,-10.35 -249.75,-30.71 -76.92,-20.69 -149.02,-51.74 -216.29,-93.48z"/>
  </g>
 </g>
</svg>
